<svg width="86" height="86" viewBox="0 0 86 86" fill="none" xmlns="http://www.w3.org/2000/svg">
<path d="M15.3632 16.2014C10.3528 17.7202 6.71924 22.434 6.71924 28.0441V30.1036C6.71924 33.5263 9.42433 36.2819 12.7844 36.2819H24.8415C28.2016 36.2819 30.9067 33.5263 30.9067 30.1036V28.0441C30.9067 22.4351 27.2746 17.7221 22.2658 16.2024L15.3632 16.2014Z" fill="#00AB67"/>
<path d="M27.3373 19.2852C25.5316 29.5629 14.7816 32.2505 7.75317 33.5628C8.84104 35.2057 10.6843 36.2818 12.7844 36.2818H24.8414C28.2015 36.2818 30.9066 33.5263 30.9066 30.1036V28.0433C30.9066 24.6109 29.5409 21.5201 27.3373 19.2852Z" fill="#00995C"/>
<path d="M38.1461 17.1206C32.3505 19.2154 28.2209 24.8438 28.2209 31.4926V34.0337C28.2209 38.2569 31.5533 41.6569 35.6925 41.6569H50.3089C54.4481 41.6569 57.7805 38.2569 57.7805 34.0337V31.4926C57.7805 24.8444 53.6516 19.2163 47.8567 17.1211L38.1461 17.1206Z" fill="#E8ECF2"/>
<path d="M51.063 10.7501C51.063 15.203 47.4533 18.8128 43.0005 18.8128C38.5477 18.8128 34.938 15.203 34.938 10.7501C34.938 6.29726 38.5477 2.6875 43.0005 2.6875C47.4533 2.6875 51.063 6.29726 51.063 10.7501Z" fill="#E8ECF2"/>
<path d="M63.7382 16.2014C58.7278 17.7202 55.0942 22.434 55.0942 28.0441V30.1036C55.0942 33.5263 57.7993 36.2819 61.1594 36.2819H73.2165C76.5766 36.2819 79.2817 33.5263 79.2817 30.1036V28.0441C79.2817 22.4351 75.6496 17.7221 70.6408 16.2024L63.7382 16.2014Z" fill="#00AB67"/>
<path d="M75.7123 19.2852C73.9066 29.5629 63.1566 32.2505 56.1282 33.5628C57.216 35.2057 59.0593 36.2818 61.1594 36.2818H73.2164C76.5765 36.2818 79.2816 33.5263 79.2816 30.1036V28.0433C79.2816 24.6109 77.9159 21.5201 75.7123 19.2852Z" fill="#00995C"/>
<path d="M47.1944 3.87646C47.9641 5.13731 48.3726 6.5854 48.3754 8.06263C48.3754 12.5155 44.7657 16.1253 40.3129 16.1253C38.8322 16.1216 37.3812 15.7102 36.1189 14.9363C37.5794 17.3405 40.1874 18.8096 43.0004 18.8128C47.4532 18.8128 51.0629 15.203 51.0629 10.7502C51.0586 7.94151 49.5931 5.33748 47.1944 3.87646Z" fill="#D1D9E4"/>
<path d="M55.0942 28.0434V30.1037C55.0942 33.1792 57.2839 35.6965 60.1648 36.1795C60.3593 35.4987 60.4665 34.7791 60.4665 34.0326V31.4921C60.4665 27.6962 59.1176 24.2369 56.8841 21.5739C55.7513 23.4542 55.0942 25.6665 55.0942 28.0434Z" fill="#00995C"/>
<path d="M53.6166 20.9178C49.5703 31.3709 36.0359 36.2489 29.3503 38.064C30.6669 40.2222 33.006 41.657 35.6912 41.657H50.3097C54.4489 41.657 57.779 38.2558 57.779 34.0327V31.4921C57.779 27.3769 56.1964 23.6553 53.6166 20.9178Z" fill="#D1D9E4"/>
<path d="M40.4616 7.77943C39.8458 8.39521 39.0289 8.57674 38.637 8.18487C38.2452 7.79301 38.4267 6.97615 39.0425 6.36037C39.6583 5.74458 40.4751 5.56306 40.867 5.95492C41.2589 6.34678 41.0773 7.16364 40.4616 7.77943Z" fill="white"/>
<path d="M41.8816 5.71453C41.6383 5.87279 41.3594 5.87555 41.2586 5.7207C41.1579 5.56584 41.2736 5.31201 41.5169 5.15375C41.7602 4.99549 42.0392 4.99273 42.1399 5.14758C42.2406 5.30244 42.125 5.55627 41.8816 5.71453Z" fill="white"/>
<path d="M25.116 10.7501C25.116 14.4608 22.1079 17.469 18.3972 17.469C14.6866 17.469 11.6785 14.4608 11.6785 10.7501C11.6785 7.03939 14.6866 4.03125 18.3972 4.03125C22.1079 4.03125 25.116 7.03939 25.116 10.7501Z" fill="#E8ECF2"/>
<path d="M21.5989 4.84485C22.1404 5.83106 22.4256 6.93746 22.4283 8.06256C22.4283 11.7733 19.4202 14.7814 15.7095 14.7814C14.5922 14.7813 13.4927 14.5026 12.5103 13.9704C13.6864 16.1241 15.9431 17.4653 18.397 17.469C22.1077 17.469 25.1158 14.4608 25.1158 10.7501C25.1152 8.28565 23.7655 6.0193 21.5989 4.84485Z" fill="#D1D9E4"/>
<path d="M73.9067 10.7501C73.9067 14.4608 70.8987 17.469 67.188 17.469C63.4773 17.469 60.4692 14.4608 60.4692 10.7501C60.4692 7.03939 63.4773 4.03125 67.188 4.03125C70.8987 4.03125 73.9067 7.03939 73.9067 10.7501Z" fill="#E8ECF2"/>
<path d="M70.39 4.84485C70.9315 5.83106 71.2167 6.93746 71.2193 8.06256C71.2193 11.7733 68.2112 14.7814 64.5006 14.7814C63.3833 14.7813 62.2837 14.5026 61.3013 13.9704C62.4774 16.1241 64.7342 17.4653 67.1881 17.469C70.8987 17.4689 73.9068 14.4608 73.9068 10.7501C73.9062 8.28566 72.5565 6.01931 70.39 4.84485Z" fill="#D1D9E4"/>
<path d="M15.8318 7.57039C15.3374 8.06485 14.6814 8.21061 14.3668 7.89595C14.0521 7.58129 14.1979 6.92538 14.6923 6.43091C15.1868 5.93645 15.8427 5.79069 16.1574 6.10535C16.472 6.42001 16.3263 7.07593 15.8318 7.57039Z" fill="white"/>
<path d="M16.9757 5.91591C16.7803 6.04299 16.5563 6.0452 16.4754 5.92086C16.3946 5.79651 16.4874 5.59269 16.6828 5.4656C16.8782 5.33852 17.1022 5.33631 17.1831 5.46066C17.2639 5.585 17.1711 5.78883 16.9757 5.91591Z" fill="white"/>
<path d="M64.6155 7.57039C64.1211 8.06485 63.4651 8.2106 63.1505 7.89595C62.8358 7.58129 62.9816 6.92537 63.476 6.43091C63.9705 5.93645 64.6264 5.79069 64.9411 6.10535C65.2557 6.42001 65.11 7.07593 64.6155 7.57039Z" fill="white"/>
<path d="M65.7489 5.90391C65.5535 6.03097 65.3295 6.0332 65.2486 5.90886C65.1678 5.78451 65.2606 5.58067 65.456 5.45361C65.6514 5.32651 65.8754 5.32432 65.9562 5.44866C66.0371 5.57301 65.9443 5.77682 65.7489 5.90391Z" fill="white"/>
<path d="M81.9693 41.6568H4.03185C3.28741 41.6568 2.68776 42.2561 2.68877 43.0006C2.59939 53.4609 7.22927 46.0872 11.2335 55.9527C15.2377 65.8183 6.76421 63.7232 14.2543 71.3116C21.7444 78.9 19.7825 70.4258 29.6182 74.5818C39.4538 78.7378 31.973 83.2202 42.6568 83.3111C53.3406 83.402 45.9395 78.793 55.8449 74.8049C65.7505 70.8168 63.6448 79.2545 71.2639 71.7945C78.883 64.3346 70.3745 66.2894 74.5472 56.4934C78.72 46.6974 83.2218 54.1465 83.3131 43.0006C83.3131 42.2561 82.7138 41.6568 81.9693 41.6568Z" fill="#E2E8F0"/>
<path d="M60.4693 41.6575C60.4693 47.8986 57.1397 53.6656 51.7349 56.7861C46.33 59.9066 39.671 59.9066 34.2661 56.7861C28.8613 53.6656 25.5317 47.8986 25.5317 41.6575H60.4693Z" fill="#00AB67"/>
<path d="M54.8764 41.6576C54.0707 46.8327 50.9778 51.4318 46.3598 54.098C42.1449 56.5315 37.1687 57.0583 32.6179 55.6963C33.1448 56.0859 33.6907 56.4533 34.2661 56.7855C39.671 59.9061 46.33 59.9061 51.7349 56.7855C57.1397 53.665 60.4692 47.8987 60.4692 41.6576H54.8764Z" fill="#00995C"/>
<path d="M65.7789 47.5543C65.1916 47.5861 64.6933 47.996 64.5489 48.5661C62.5602 55.9878 56.764 61.7842 49.3424 63.7728C47.4474 64.1339 48.2154 66.9975 50.0368 66.3618C58.3816 64.1258 64.9018 57.6054 67.1378 49.2605C67.3863 48.3769 66.6956 47.5097 65.7789 47.5543Z" fill="#C4DCF0"/>
<path d="M65.0025 47.5543C64.4153 47.5861 63.9169 47.996 63.7725 48.5661C61.7839 55.9878 55.9876 61.7842 48.566 63.7728C46.671 64.1339 47.439 66.9975 49.2604 66.3618C57.6052 64.1258 64.1255 57.6054 66.3615 49.2605C66.61 48.3769 65.9193 47.5097 65.0025 47.5543Z" fill="#4E597B"/>
<path d="M21.6078 47.5545C20.7611 47.6194 20.1861 48.4436 20.4175 49.2606C22.6534 57.6056 29.1737 64.1259 37.5185 66.362C39.3399 66.9977 40.1079 64.134 38.2129 63.773C30.7913 61.7843 24.995 55.9879 23.0064 48.5663C22.8471 47.9346 22.2576 47.5081 21.6078 47.5545Z" fill="#C4DCF0"/>
<path d="M20.8312 47.5545C19.9845 47.6194 19.4095 48.4436 19.6409 49.2606C21.8768 57.6056 28.3971 64.1259 36.7419 66.362C38.5633 66.9977 39.3313 64.134 37.4363 63.773C30.0147 61.7843 24.2184 55.9879 22.2298 48.5663C22.0705 47.9346 21.481 47.5081 20.8312 47.5545Z" fill="#4E597B"/>
<path d="M77.938 41.6568V43.0006C77.8466 54.1465 73.345 46.6974 69.1721 56.4934C64.9993 66.2894 73.5079 64.3346 65.8889 71.7945C64.7832 72.8771 63.8982 73.5941 63.1357 74.0937C65.5523 74.9412 66.5501 76.4099 71.2639 71.7945C78.8829 64.3346 70.3744 66.2894 74.5471 56.4934C78.72 46.6974 83.2218 54.1465 83.313 43.0006C83.313 42.2561 82.7137 41.6568 81.9692 41.6568H77.938Z" fill="#D1D9E4"/>
<path d="M54.9185 73.6841C53.7624 73.7449 52.3272 74.0571 50.4699 74.8048C41.6638 78.3503 46.5066 82.3783 40.1897 83.1666C40.8917 83.2454 41.676 83.3027 42.6567 83.311C53.3405 83.4018 45.9395 78.7929 55.8449 74.8048C56.581 74.5085 57.2324 74.2984 57.8448 74.1277C57.0687 73.8467 56.1617 73.6188 54.9185 73.6841V73.6841Z" fill="#D1D9E4"/>
<path d="M33.5069 52.7602C34.3468 53.6001 35.4609 53.8477 35.9954 53.3132C36.5298 52.7787 36.2823 51.6646 35.4424 50.8247C34.6025 49.9848 33.4884 49.7372 32.9539 50.2717C32.4194 50.8062 32.667 51.9203 33.5069 52.7602Z" fill="white"/>
<path d="M31.5403 49.9567C31.8722 50.1725 32.2526 50.1763 32.39 49.9651C32.5273 49.7539 32.3696 49.4077 32.0377 49.1918C31.7058 48.9759 31.3254 48.9722 31.188 49.1834C31.0507 49.3946 31.2084 49.7408 31.5403 49.9567Z" fill="white"/>
</svg>
