<svg width="22" height="22" viewBox="0 0 22 22" fill="none" xmlns="http://www.w3.org/2000/svg">
<path d="M12.1917 15.8354C12.0084 15.6521 11.9204 15.4306 11.9277 15.1708C11.9357 14.9111 12.0313 14.6896 12.2147 14.5063L14.8042 11.9167H4.58341C4.32369 11.9167 4.10583 11.8287 3.92983 11.6527C3.75444 11.4773 3.66675 11.2597 3.66675 11C3.66675 10.7403 3.75444 10.5224 3.92983 10.3464C4.10583 10.171 4.32369 10.0833 4.58341 10.0833H14.8042L12.1917 7.47084C12.0084 7.2875 11.9167 7.06964 11.9167 6.81725C11.9167 6.56548 12.0084 6.34792 12.1917 6.16459C12.3751 5.98125 12.5929 5.88959 12.8453 5.88959C13.0971 5.88959 13.3147 5.98125 13.498 6.16459L17.6917 10.3583C17.7834 10.45 17.8485 10.5493 17.887 10.6563C17.9249 10.7632 17.9438 10.8778 17.9438 11C17.9438 11.1222 17.9249 11.2368 17.887 11.3438C17.8485 11.4507 17.7834 11.55 17.6917 11.6417L13.4751 15.8583C13.307 16.0264 13.0971 16.1104 12.8453 16.1104C12.5929 16.1104 12.3751 16.0188 12.1917 15.8354Z" fill="#2B2D42"/>
</svg>
