<svg width="86" height="86" viewBox="0 0 86 86" fill="none" xmlns="http://www.w3.org/2000/svg">
<g clip-path="url(#clip0_548_145)">
<path fill-rule="evenodd" clip-rule="evenodd" d="M25.054 0.993069V72.5609C25.054 73.1048 25.5028 73.5538 26.0464 73.5538H41.8519H82.3908C82.9344 73.5538 83.3833 73.1048 83.3833 72.5609V56.5588V12.3497V11.7309C83.3833 11.6411 83.3683 11.5712 83.3384 11.5115L71.3185 0.0499961C71.2436 0.0150675 71.1638 0.00012207 71.059 0.00012207H70.3208H26.0464C25.5028 0.00012207 25.054 0.444287 25.054 0.993069Z" fill="#E8ECF2"/>
<path fill-rule="evenodd" clip-rule="evenodd" d="M71.313 7.51992C71.308 9.71539 73.1085 11.5117 75.2981 11.5117H83.338C83.2732 11.377 83.1185 11.2622 82.8193 10.9728L71.9614 0.60909C71.6222 0.289695 71.4677 0.125127 71.318 0.0502319L71.313 7.51992Z" fill="#2B2D42"/>
<path fill-rule="evenodd" clip-rule="evenodd" d="M55.5271 0.00012207C60.0059 6.55663 63.4174 15.3835 65.223 25.5126C65.7716 28.5813 66.1706 31.7697 66.405 35.048C66.5746 37.3583 66.6594 39.7133 66.6594 42.1034C66.6594 42.9367 66.6495 43.76 66.6295 44.5833C66.4749 50.7207 65.7567 56.5887 64.5597 62.0275C63.6619 66.139 62.4848 70.0062 61.0833 73.5538H62.8289H68.9236H82.3899C82.9335 73.5538 83.3824 73.1048 83.3824 72.5609V56.5588V12.3497V11.7309C83.3824 11.6411 83.3674 11.5712 83.3375 11.5115H75.2976C73.108 11.5115 71.3075 9.71515 71.3125 7.51969L71.3175 0.0499961C71.2428 0.0150675 71.163 0.00012207 71.0583 0.00012207H70.3201L55.5271 0.00012207Z" fill="#B6C0D0"/>
<path fill-rule="evenodd" clip-rule="evenodd" d="M15.9709 52.4724C8.08559 56.3095 2.59424 64.8769 2.59424 74.8314C2.59424 82.2113 5.6117 85.0853 13.1879 85.9785H25.6119H38.0359C45.6121 85.0853 48.6295 82.2113 48.6295 74.8314C48.6295 64.6623 42.8938 55.9402 34.7341 52.2329L26.1058 49.4736L17.1581 51.9535C16.9884 52.0333 16.1405 52.3926 15.9709 52.4724Z" fill="#00AB67"/>
<path fill-rule="evenodd" clip-rule="evenodd" d="M14.5498 33.4761C13.0835 33.9352 13.1483 34.6037 13.7818 36.5197L19.1284 47.6468L26.106 49.473L33.2283 47.6668L36.7645 39.9028C37.6473 37.9617 38.6049 35.3372 36.4553 35.891C22.1059 39.5835 26.3952 29.7338 14.5498 33.4761Z" fill="#00AB67"/>
<path fill-rule="evenodd" clip-rule="evenodd" d="M33.043 36.5749C33.1028 37.4033 32.5642 38.7653 32.0506 39.898L28.5144 47.662L28.4944 47.6671H30.0306H33.2276L36.7637 39.903C37.6465 37.962 38.6042 35.3374 36.4546 35.8913C35.1777 36.2206 34.0506 36.4402 33.043 36.5749Z" fill="#00995C"/>
<path fill-rule="evenodd" clip-rule="evenodd" d="M34.7344 52.2328C34.3104 52.5422 33.7918 52.7318 33.2281 52.7318H30.0311H29.8564C36.7592 57.1227 41.4177 65.4706 41.4177 75.0559C41.4177 81.3729 39.3926 84.5314 34.4899 85.9785H38.036C45.6121 85.0853 48.6296 82.2112 48.6296 74.8313C48.6298 64.6622 42.8941 55.9402 34.7344 52.2328Z" fill="#00995C"/>
<path d="M26.9541 70.2408H24.5501C24.0584 70.2408 23.6431 69.825 23.6431 69.3328C23.6431 68.8405 24.0586 68.4249 24.5501 68.4249H29.1436C29.8603 68.4249 30.441 67.844 30.441 67.1275C30.441 66.4109 29.8601 65.8301 29.1436 65.8301H27.0396V63.4798C27.0396 62.7631 26.4588 62.1824 25.7422 62.1824C25.0257 62.1824 24.4448 62.7632 24.4448 63.4798V65.8351C22.5629 65.8915 21.0483 67.4368 21.0483 69.3327C21.0483 71.2642 22.6193 72.8356 24.5503 72.8356H26.9543C27.4378 72.8356 27.8463 73.2492 27.8463 73.7385C27.8463 74.2309 27.4309 74.6465 26.9394 74.6465H22.3459C21.6292 74.6465 21.0485 75.2274 21.0485 75.9439C21.0485 76.6605 21.6294 77.2413 22.3459 77.2413H24.445V78.5585C24.445 79.2752 25.0258 79.8559 25.7424 79.8559C26.4589 79.8559 27.0398 79.2751 27.0398 78.5585V77.2363C28.9241 77.1824 30.4413 75.6359 30.4413 73.7384C30.4411 71.8099 28.8769 70.2408 26.9541 70.2408Z" fill="white"/>
<path d="M71.3129 26.8103H45.7469C45.0301 26.8103 44.4495 26.2295 44.4495 25.5129C44.4495 24.7964 45.0303 24.2155 45.7469 24.2155H71.3129C72.0297 24.2155 72.6103 24.7964 72.6103 25.5129C72.6103 26.2295 72.0297 26.8103 71.3129 26.8103Z" fill="#2B2D42"/>
<path d="M71.3129 36.3455H45.7469C45.0301 36.3455 44.4495 35.7647 44.4495 35.0481C44.4495 34.3316 45.0303 33.7507 45.7469 33.7507H71.3129C72.0297 33.7507 72.6103 34.3316 72.6103 35.0481C72.6103 35.7647 72.0297 36.3455 71.3129 36.3455Z" fill="#2B2D42"/>
<path d="M52.5798 17.2747H34.5398C33.8231 17.2747 33.2424 16.6939 33.2424 15.9773C33.2424 15.2606 33.8233 14.6799 34.5398 14.6799H52.5798C53.2965 14.6799 53.8772 15.2608 53.8772 15.9773C53.8772 16.6939 53.2963 17.2747 52.5798 17.2747Z" fill="#2B2D42"/>
<path d="M71.3129 45.8807H45.7469C45.0301 45.8807 44.4495 45.2998 44.4495 44.5833C44.4495 43.8667 45.0303 43.2859 45.7469 43.2859H71.3129C72.0297 43.2859 72.6103 43.8667 72.6103 44.5833C72.6103 45.2998 72.0297 45.8807 71.3129 45.8807Z" fill="#2B2D42"/>
<path d="M66.3551 64.262C65.1053 64.262 64.0918 63.4157 63.2599 62.5772C62.8648 62.1801 62.6787 62.152 62.6771 62.1519C62.539 62.1718 62.1508 62.5144 61.9189 62.7189C60.9995 63.53 59.0866 65.2167 56.3694 62.688C55.8448 62.1999 55.8153 61.3789 56.3036 60.8543C56.7917 60.3295 57.6129 60.3001 58.1373 60.7885C58.6126 61.231 59.0354 61.4686 59.2655 61.4273C59.5118 61.3823 59.8628 61.0726 60.2022 60.7732C61.0532 60.0222 62.8247 58.4593 65.1009 60.7485C65.9645 61.619 66.2895 61.6692 66.3662 61.6667C66.4391 61.6624 66.6613 61.545 66.9817 61.1322C67.4091 60.5844 67.7273 60.0132 68.0079 59.509C68.5664 58.5057 69.1439 57.4682 70.3674 57.2355C71.9254 56.9295 72.579 58.2825 72.8932 58.9325C73.3142 59.8032 73.6185 60.4325 75.0237 60.5077C75.7392 60.546 76.288 61.1572 76.2497 61.8729C76.2112 62.5886 75.604 63.1406 74.8844 63.099C72.0603 62.9475 71.115 61.2076 70.6141 60.1799C70.4994 60.368 70.3782 60.5861 70.275 60.7712C69.9647 61.3289 69.5783 62.0227 69.0292 62.7263C68.2845 63.6855 67.4406 64.2016 66.5234 64.2572C66.467 64.2603 66.4107 64.262 66.3551 64.262Z" fill="#2B2D42"/>
<path fill-rule="evenodd" clip-rule="evenodd" d="M33.2282 47.6671H18.9788C17.5872 47.6671 16.4502 48.8048 16.4502 50.1969C16.4502 50.8755 16.7195 51.4991 17.1585 51.9532C17.6223 52.4323 18.2658 52.7315 18.979 52.7315H23.0638H26.1063H29.1488H33.2285C33.7921 52.7315 34.3108 52.542 34.7348 52.2326C35.3583 51.7687 35.7622 51.0301 35.7622 50.1969C35.7619 48.8048 34.6198 47.6671 33.2282 47.6671Z" fill="#E8ECF2"/>
<path fill-rule="evenodd" clip-rule="evenodd" d="M33.2284 47.6671H30.0314C30.5601 47.6671 31.0539 47.8318 31.4628 48.1161C32.1261 48.5702 32.5601 49.3386 32.5601 50.1969C32.5601 50.6459 32.4454 51.065 32.2358 51.4343C32.0611 51.7436 31.8218 52.0182 31.5325 52.2326C31.1135 52.542 30.5948 52.7315 30.0312 52.7315H33.2282C33.7918 52.7315 34.3105 52.542 34.7345 52.2326C35.358 51.7687 35.7619 51.0301 35.7619 50.1969C35.7621 48.8048 34.62 47.6671 33.2284 47.6671Z" fill="#8D99AE"/>
</g>
<defs>
<clipPath id="clip0_548_145">
<rect width="85.9782" height="85.9782" fill="white"/>
</clipPath>
</defs>
</svg>
