<svg width="92" height="80" viewBox="0 0 92 80" fill="none" xmlns="http://www.w3.org/2000/svg">
<path d="M15.2358 46.6221V51.2842C15.2358 52.5721 16.279 53.6153 17.5669 53.6153H22.229C23.5169 53.6153 24.5601 52.5721 24.5601 51.2842V46.6221H15.2358Z" fill="#4E597B"/>
<path d="M17.5675 16.3176L11.2572 22.6277C10.8202 23.0649 10.5742 23.6581 10.5742 24.2758V41.9594C10.5742 44.5341 12.6617 46.6215 15.2363 46.6215H73.5136C76.0882 46.6215 78.1757 44.5341 78.1757 41.9594V24.2758C78.1757 23.658 77.9297 23.0648 77.4927 22.6277L71.1824 16.3174L63.6682 1.28905C63.273 0.498825 62.4665 0 61.583 0H26.0981C25.1657 0 24.3231 0.555996 23.9559 1.41263L17.5675 16.3176Z" fill="#D1D9E4"/>
<path d="M10.5742 12.8214C10.5742 14.1093 11.6174 15.1525 12.9053 15.1525H17.5674V12.8214C17.5674 11.5336 16.5242 10.4904 15.2363 10.4904H12.9053C11.6174 10.4904 10.5742 11.5334 10.5742 12.8214Z" fill="#D1D9E4"/>
<path d="M71.1821 12.8214V15.1525H75.8443C77.1321 15.1525 78.1753 14.1093 78.1753 12.8214C78.1753 11.5336 77.1321 10.4904 75.8443 10.4904H73.5133C72.2253 10.4904 71.1821 11.5334 71.1821 12.8214Z" fill="#D1D9E4"/>
<path d="M38.5466 46.6219H73.513C76.0876 46.6219 78.1751 44.5345 78.1751 41.9598V29.1179C68.0267 40.2814 53.6334 46.6383 38.5466 46.6219Z" fill="#BCC4D1"/>
<path d="M56.0297 25.6422L59.5264 29.1389L54.8641 41.9599H33.8844L29.2222 29.1389L32.7188 25.6422H56.0297Z" fill="#4E597B"/>
<path d="M29.2223 41.9598L26.8913 36.132H15.2358V41.9598H29.2223Z" fill="#4E597B"/>
<path d="M59.5269 41.9598L61.8579 36.132H73.5134V41.9598H59.5269Z" fill="#4E597B"/>
<path d="M15.2358 29.1391V25.6424H20.2383C22.1452 25.6424 23.8585 26.8032 24.5672 28.5726L25.7258 31.4701H17.567C16.279 31.4701 15.2358 30.427 15.2358 29.1391Z" fill="#8D99AE"/>
<path d="M36.2412 42.2044L38.5205 41.716L35.0244 25.3984L32.745 25.8868L36.2412 42.2044Z" fill="#8D99AE"/>
<path d="M39.7183 42.0467L42.0425 41.8805L40.8757 25.5565L38.5515 25.7226L39.7183 42.0467Z" fill="#8D99AE"/>
<path d="M45.54 25.6416H43.209V41.9592H45.54V25.6416Z" fill="#8D99AE"/>
<path d="M49.0052 42.0437L50.1663 25.7316L47.8433 25.5663L46.6822 41.8783L49.0052 42.0437Z" fill="#8D99AE"/>
<path d="M52.5043 42.2091L56.0088 25.893L53.7297 25.4035L50.2252 41.7196L52.5043 42.2091Z" fill="#8D99AE"/>
<path d="M55.6803 43.1251H33.0687L27.8738 28.839L32.2365 24.4763H56.5124L60.875 28.839L55.6803 43.1251ZM34.7005 40.794H54.0485L58.178 29.4382L55.5473 26.8075H33.2016L30.571 29.4382L34.7005 40.794Z" fill="#8D99AE"/>
<path d="M28.0573 4.66266H60.6924L65.3547 16.3181H23.395L28.0573 4.66266Z" fill="#E7F0FF"/>
<path d="M56.6766 4.66266C51.4573 9.98918 45.0363 13.9859 37.9534 16.3181H65.3541L60.692 4.66266H56.6766Z" fill="#BFD3F1"/>
<path d="M73.5134 29.1391V25.6424H68.5109C66.6041 25.6424 64.8908 26.8032 64.182 28.5726L63.0234 31.4701H71.1822C72.4702 31.4701 73.5134 30.427 73.5134 29.1391Z" fill="#8D99AE"/>
<path d="M77.4877 11.1686C76.3303 13.601 73.8768 15.1513 71.1821 15.1524H75.8443C77.1321 15.1524 78.1753 14.1081 78.1753 12.8214C78.1741 12.2002 77.9271 11.6057 77.4877 11.1686Z" fill="#8D99AE"/>
<path d="M16.8791 11.1685C15.9501 13.1173 14.1716 14.5276 12.063 14.9892C12.331 15.0952 12.6166 15.1512 12.9046 15.1524H17.5667V12.8213C17.5668 12.2013 17.3197 11.6057 16.8791 11.1685Z" fill="#8D99AE"/>
<path d="M24.1104 52.6503C24.4018 52.254 24.5592 51.7761 24.5602 51.2842V46.6221H15.2358V47.8459C18.7279 48.1629 21.9354 49.8996 24.1104 52.6503Z" fill="#2B2D42"/>
<path d="M64.189 46.6221V51.2842C64.189 52.5721 65.2322 53.6153 66.52 53.6153H71.1822C72.47 53.6153 73.5132 52.5721 73.5132 51.2842V46.6221H64.189Z" fill="#4E597B"/>
<path d="M73.063 52.6503C73.3544 52.254 73.5118 51.7761 73.5129 51.2842V46.6221H64.1885V47.8459C67.6805 48.1629 70.8882 49.8996 73.063 52.6503Z" fill="#2B2D42"/>
<path d="M76.8614 32.1504C84.7906 32.1504 91.2186 25.7224 91.2186 17.7932C91.2186 9.86389 84.7906 3.43594 76.8614 3.43594C68.9321 3.43594 62.5042 9.86389 62.5042 17.7932C62.5042 25.7224 68.9321 32.1504 76.8614 32.1504Z" fill="#00AB67"/>
<path d="M84.8387 5.85443C86.3665 8.13599 87.2574 10.8798 87.2574 13.832C87.2574 21.7612 80.8294 28.1892 72.9002 28.1892C69.948 28.1892 67.2042 27.2979 64.9226 25.7706C67.4985 29.6175 71.8837 32.1502 76.8612 32.1502C84.7904 32.1502 91.2184 25.7222 91.2184 17.793C91.2184 12.816 88.6857 8.4303 84.8387 5.85443Z" fill="#00995C"/>
<g clip-path="url(#clip0_548_310)">
<path d="M77.1807 20.5009C78.416 20.5009 79.4175 19.4995 79.4175 18.2641C79.4175 17.0287 78.416 16.0273 77.1807 16.0273C75.9453 16.0273 74.9438 17.0287 74.9438 18.2641C74.9438 19.4995 75.9453 20.5009 77.1807 20.5009Z" stroke="white" stroke-width="1.49122" stroke-linecap="round" stroke-linejoin="round"/>
<path d="M82.6987 20.5008C82.5994 20.7257 82.5698 20.9752 82.6137 21.2171C82.6575 21.4589 82.7729 21.6821 82.9447 21.8578L82.9895 21.9026C83.1281 22.0411 83.2381 22.2055 83.3132 22.3866C83.3882 22.5676 83.4268 22.7617 83.4268 22.9576C83.4268 23.1536 83.3882 23.3476 83.3132 23.5287C83.2381 23.7097 83.1281 23.8742 82.9895 24.0127C82.851 24.1513 82.6865 24.2613 82.5055 24.3363C82.3245 24.4114 82.1304 24.45 81.9344 24.45C81.7385 24.45 81.5444 24.4114 81.3634 24.3363C81.1824 24.2613 81.0179 24.1513 80.8794 24.0127L80.8347 23.9679C80.6589 23.796 80.4358 23.6807 80.1939 23.6369C79.952 23.593 79.7025 23.6226 79.4777 23.7219C79.2571 23.8164 79.0691 23.9733 78.9366 24.1734C78.8041 24.3734 78.733 24.6078 78.7321 24.8477V24.9745C78.7321 25.37 78.5749 25.7493 78.2953 26.0289C78.0156 26.3086 77.6363 26.4657 77.2408 26.4657C76.8453 26.4657 76.466 26.3086 76.1864 26.0289C75.9067 25.7493 75.7496 25.37 75.7496 24.9745V24.9074C75.7438 24.6606 75.664 24.4212 75.5204 24.2205C75.3767 24.0197 75.176 23.8667 74.9444 23.7815C74.7195 23.6823 74.47 23.6527 74.2281 23.6965C73.9863 23.7404 73.7631 23.8557 73.5874 24.0276L73.5426 24.0723C73.4041 24.211 73.2397 24.3209 73.0586 24.396C72.8776 24.471 72.6836 24.5097 72.4876 24.5097C72.2916 24.5097 72.0976 24.471 71.9165 24.396C71.7355 24.3209 71.571 24.211 71.4325 24.0723C71.2939 23.9338 71.1839 23.7693 71.1089 23.5883C71.0338 23.4073 70.9952 23.2132 70.9952 23.0173C70.9952 22.8213 71.0338 22.6273 71.1089 22.4462C71.1839 22.2652 71.2939 22.1007 71.4325 21.9622L71.4773 21.9175C71.6492 21.7418 71.7645 21.5186 71.8083 21.2767C71.8522 21.0348 71.8226 20.7854 71.7233 20.5605C71.6288 20.34 71.4719 20.1519 71.2718 20.0194C71.0718 19.8869 70.8374 19.8158 70.5975 19.8149H70.4707C70.0752 19.8149 69.6959 19.6578 69.4163 19.3781C69.1366 19.0985 68.9795 18.7192 68.9795 18.3237C68.9795 17.9282 69.1366 17.5489 69.4163 17.2692C69.6959 16.9896 70.0752 16.8324 70.4707 16.8324H70.5378C70.7846 16.8267 71.024 16.7468 71.2247 16.6032C71.4255 16.4596 71.5785 16.2589 71.6637 16.0272C71.7629 15.8023 71.7925 15.5528 71.7487 15.311C71.7048 15.0691 71.5895 14.8459 71.4176 14.6702L71.3729 14.6254C71.2342 14.4869 71.1243 14.3225 71.0492 14.1415C70.9742 13.9604 70.9355 13.7664 70.9355 13.5704C70.9355 13.3744 70.9742 13.1804 71.0492 12.9994C71.1243 12.8183 71.2342 12.6539 71.3729 12.5154C71.5114 12.3767 71.6759 12.2667 71.8569 12.1917C72.0379 12.1166 72.232 12.078 72.4279 12.078C72.6239 12.078 72.8179 12.1166 72.999 12.1917C73.18 12.2667 73.3445 12.3767 73.483 12.5154L73.5277 12.5601C73.7034 12.732 73.9266 12.8473 74.1685 12.8912C74.4104 12.935 74.6598 12.9054 74.8847 12.8062H74.9444C75.1649 12.7116 75.353 12.5547 75.4854 12.3547C75.6179 12.1546 75.689 11.9202 75.69 11.6803V11.5535C75.69 11.158 75.8471 10.7787 76.1267 10.4991C76.4064 10.2194 76.7857 10.0623 77.1812 10.0623C77.5767 10.0623 77.956 10.2194 78.2356 10.4991C78.5153 10.7787 78.6724 11.158 78.6724 11.5535V11.6206C78.6734 11.8606 78.7445 12.095 78.8769 12.295C79.0094 12.4951 79.1975 12.652 79.418 12.7465C79.6429 12.8458 79.8924 12.8754 80.1342 12.8315C80.3761 12.7877 80.5993 12.6723 80.775 12.5005L80.8198 12.4557C80.9583 12.3171 81.1227 12.2071 81.3037 12.132C81.4848 12.057 81.6788 12.0184 81.8748 12.0184C82.0708 12.0184 82.2648 12.057 82.4458 12.132C82.6269 12.2071 82.7913 12.3171 82.9298 12.4557C83.0685 12.5942 83.1785 12.7587 83.2535 12.9397C83.3286 13.1207 83.3672 13.3148 83.3672 13.5108C83.3672 13.7067 83.3286 13.9008 83.2535 14.0818C83.1785 14.2628 83.0685 14.4273 82.9298 14.5658L82.8851 14.6105C82.7132 14.7863 82.5979 15.0094 82.554 15.2513C82.5102 15.4932 82.5398 15.7427 82.639 15.9675V16.0272C82.7336 16.2477 82.8905 16.4358 83.0905 16.5683C83.2906 16.7007 83.525 16.7718 83.7649 16.7728H83.8917C84.2872 16.7728 84.6665 16.9299 84.9461 17.2096C85.2258 17.4892 85.3829 17.8685 85.3829 18.264C85.3829 18.6595 85.2258 19.0388 84.9461 19.3185C84.6665 19.5981 84.2872 19.7552 83.8917 19.7552H83.8246C83.5846 19.7562 83.3502 19.8273 83.1502 19.9598C82.9501 20.0922 82.7932 20.2803 82.6987 20.5008V20.5008Z" stroke="white" stroke-width="1.49122" stroke-linecap="round" stroke-linejoin="round"/>
</g>
<path d="M87.3992 54.2937C83.3827 57.4784 69.5508 68.2366 60.072 73.0453C48.8741 78.7294 38.0802 73.0453 29.3105 71.9718C24.0954 71.1887 18.8276 74.4083 15.9934 77.549L15.9301 77.5609L14.7378 77.7272V55.9969C19.9937 48.1636 27.9427 49.2077 36.5037 48.3802C42.5305 47.6086 48.3952 45.8151 53.7501 42.9294C54.8145 42.1432 55.9596 42.7567 56.1822 43.987C56.9685 48.3355 54.3522 53.0986 50.2525 53.9768L48.0938 54.468C47.3412 54.6482 47.4196 55.709 48.169 55.8385C55.695 58.4369 63.3478 56.7218 70.6876 53.5252C75.5399 51.414 83.3035 46.0309 87.6805 51.8695C88.235 52.6102 88.1043 53.7352 87.3992 54.2937Z" fill="#FFE1E1"/>
<path d="M87.6805 51.8694C86.6256 50.4624 85.3739 49.707 84.0141 49.4005C83.9286 49.7641 83.7341 50.098 83.4382 50.3325C79.4217 53.5172 65.5897 64.2754 56.1109 69.0841C44.913 74.7682 34.1192 69.0841 25.3494 68.0106C21.51 67.4343 17.642 69.027 14.7378 71.1609V77.7271L15.9301 77.5607L15.9934 77.5488C18.8276 74.4081 24.0954 71.1886 29.3105 71.9717C38.0802 73.0451 48.8741 78.7292 60.072 73.0451C69.5508 68.2364 83.3827 57.4782 87.3992 54.2935C88.1043 53.735 88.235 52.6101 87.6805 51.8694Z" fill="#F2C7C7"/>
<path d="M20.5273 76.9163L15.9955 77.5504L15.9317 77.5596L14.7398 77.7271L13.2109 77.9402C12.2249 78.0788 11.3159 77.39 11.1773 76.4041L7.76046 51.9696C7.62182 50.9837 8.30906 50.0746 9.29496 49.936L16.6114 48.9117C17.078 48.8479 17.53 48.9663 17.8889 49.2199C18.2861 49.4932 18.5705 49.9289 18.645 50.4482L18.8419 51.8623L21.3785 69.9955L21.8305 73.2317L22.0618 74.8847C22.2004 75.8686 21.5116 76.7776 20.5273 76.9163Z" fill="#F1F2F2"/>
<path d="M22.0619 74.8842L21.8306 73.2312L21.3786 69.995L18.842 51.8618L18.6451 50.4477C18.5703 49.9284 18.2863 49.4927 17.889 49.2193C17.5598 48.9868 17.151 48.8755 16.726 48.9064L16.8615 49.8808L19.3981 68.0141L19.8501 71.2503L20.0814 72.9032C20.22 73.8872 19.5312 74.7966 18.5469 74.9353L14.0151 75.5694L13.9513 75.5785L12.7594 75.7461L11.2304 75.9592C11.1916 75.9647 11.1544 75.9608 11.116 75.9635L11.1774 76.4036C11.316 77.3895 12.2251 78.0783 13.211 77.9397L14.7399 77.7266L15.9318 77.5591L15.9956 77.5499L20.5274 76.9158C21.5117 76.7775 22.2006 75.8685 22.0619 74.8842Z" fill="#E6E7E8"/>
<path d="M3.17065 79.5509H11.2841C12.6348 79.5509 13.7296 78.4561 13.7296 77.1054V48.5379C13.7296 47.1872 12.6348 46.0924 11.2841 46.0924H3.17065C1.81993 46.0924 0.725098 47.1872 0.725098 48.5379V77.1054C0.724702 78.4557 1.81993 79.5509 3.17065 79.5509Z" fill="#00AB67"/>
<path d="M11.71 46.1307C11.7341 46.2693 11.7496 46.4108 11.7496 46.5565V75.124C11.7496 76.4747 10.6547 77.5695 9.30402 77.5695H1.19022C1.04485 77.5695 0.903041 77.5545 0.764404 77.5299C0.966022 78.6774 1.96539 79.55 3.17074 79.55H11.2842C12.6349 79.55 13.7297 78.4552 13.7297 77.1045V48.537C13.7297 47.3321 12.8571 46.3327 11.71 46.1307Z" fill="#00995C"/>
<path d="M9.75114 70.8624C10.0828 69.4592 9.21422 68.0529 7.81107 67.7212C6.40792 67.3895 5.00157 68.2581 4.66989 69.6613C4.33821 71.0644 5.20681 72.4708 6.60996 72.8024C8.0131 73.1341 9.41946 72.2655 9.75114 70.8624Z" fill="white"/>
<path d="M8.63281 68.04C8.89305 68.446 9.04595 68.9276 9.04595 69.4458C9.04595 70.888 7.87704 72.0569 6.43483 72.0569C5.91672 72.0569 5.43506 71.904 5.02905 71.6437C5.49329 72.3678 6.30293 72.8491 7.22704 72.8491C8.66925 72.8491 9.83816 71.6802 9.83816 70.238C9.83816 69.3142 9.35689 68.5042 8.63281 68.04Z" fill="#E6E7E8"/>
<defs>
<clipPath id="clip0_548_310">
<rect width="17.8946" height="17.8946" fill="white" transform="translate(68.2336 9.31662)"/>
</clipPath>
</defs>
</svg>
