<svg width="80" height="80" viewBox="0 0 80 80" fill="none" xmlns="http://www.w3.org/2000/svg">
<path d="M43.85 1.25H36.25C35.2554 1.25 34.3016 1.64509 33.5983 2.34835C32.8951 3.05161 32.5 4.00544 32.5 5H31.25C30.2554 5 29.3016 5.39509 28.5983 6.09835C27.8951 6.80161 27.5 7.75544 27.5 8.75V16.5875C27.8798 16.3672 28.3109 16.2508 28.75 16.25H32.5V11.25C32.5 11.25 36.25 13.75 47.5 13.75V16.25H51.25C51.6891 16.2508 52.1202 16.3672 52.5 16.5875V9.9C52.4993 7.60608 51.5878 5.4063 49.9657 3.78426C48.3437 2.16221 46.1439 1.25066 43.85 1.25Z" fill="#2B2D42"/>
<path d="M51.25 15H46.25V18.75C46.2523 19.6026 46.1042 20.4489 45.8125 21.25H51.25C51.9124 21.248 52.5472 20.984 53.0156 20.5156C53.484 20.0472 53.748 19.4124 53.75 18.75V17.5C53.748 16.8376 53.484 16.2028 53.0156 15.7344C52.5472 15.266 51.9124 15.002 51.25 15Z" fill="#F2C7C7"/>
<path d="M33.75 18.75V15H28.75C28.0876 15.002 27.4528 15.266 26.9844 15.7344C26.516 16.2028 26.252 16.8376 26.25 17.5V18.75C26.252 19.4124 26.516 20.0472 26.9844 20.5156C27.4528 20.984 28.0876 21.248 28.75 21.25H34.1875C33.8958 20.4489 33.7477 19.6026 33.75 18.75Z" fill="#F2C7C7"/>
<path d="M45 23.0749V28.7499L40 33.7499L35 28.7499V23.0749C36.3706 24.3138 38.1524 24.9998 40 24.9998C41.8476 24.9998 43.6294 24.3138 45 23.0749Z" fill="#F2C7C7"/>
<path d="M58.7 36.7125L40 55.2625L21.3 36.7125C21.3958 36.1265 21.6293 35.5717 21.9813 35.0936C22.3334 34.6155 22.7939 34.2278 23.325 33.9625L28.75 31.25L35 27.5L40 32.5L45 27.5L51.25 31.25L56.675 33.9625C57.2062 34.2278 57.6667 34.6155 58.0188 35.0936C58.3708 35.5717 58.6043 36.1265 58.7 36.7125Z" fill="#E6ECFF"/>
<path d="M71.8749 11.25C70.3835 11.2517 68.9538 11.8448 67.8992 12.8994C66.8447 13.9539 66.2515 15.3837 66.2499 16.875V39.0212C65.2433 38.6686 64.158 38.6057 63.1173 38.8395C62.0767 39.0733 61.1226 39.5945 60.3636 40.3438L43.9636 56.6125C43.8455 56.7283 43.7516 56.8663 43.6872 57.0187C43.6228 57.171 43.5893 57.3346 43.5886 57.5V70C43.5886 70.3315 43.7203 70.6495 43.9547 70.8839C44.1892 71.1183 44.5071 71.25 44.8386 71.25H64.9999C65.3314 71.25 65.6493 71.1183 65.8838 70.8839C66.1182 70.6495 66.2499 70.3315 66.2499 70V64.2675L75.6699 54.8488C76.252 54.2696 76.7135 53.5807 77.0276 52.822C77.3417 52.0633 77.5022 51.2499 77.4999 50.4287V16.875C77.4982 15.3837 76.9051 13.9539 75.8505 12.8994C74.796 11.8448 73.3662 11.2517 71.8749 11.25Z" fill="#FFE1E1"/>
<path d="M32.5 10V18.75C32.5 20.7391 33.2902 22.6468 34.6967 24.0533C36.1032 25.4598 38.0109 26.25 40 26.25C41.9891 26.25 43.8968 25.4598 45.3033 24.0533C46.7098 22.6468 47.5 20.7391 47.5 18.75V12.5C36.25 12.5 32.5 10 32.5 10Z" fill="#FFE1E1"/>
<path d="M51.25 31.25L45 27.5L40 32.5L46.25 36.25L51.25 31.25Z" fill="#D0DBF7"/>
<path d="M28.75 31.25L35 27.5L40 32.5L33.75 36.25L28.75 31.25Z" fill="#D0DBF7"/>
<path d="M35.1924 35.385L37.4999 40L33.8386 49.1538L39.9999 55.2625L46.1611 49.1538L42.4999 40L44.8074 35.385L39.9999 32.5L35.1924 35.385Z" fill="#00AB67"/>
<path d="M44.8076 35.385L40.0001 32.5L35.1926 35.385L37.5001 40H42.5001L44.8076 35.385Z" fill="#00995C"/>
<path d="M70.1499 50.1624L60.1499 60.1499C59.9157 60.3827 59.5989 60.5134 59.2687 60.5134C58.9384 60.5134 58.6216 60.3827 58.3874 60.1499C58.1546 59.9157 58.0239 59.5989 58.0239 59.2687C58.0239 58.9384 58.1546 58.6216 58.3874 58.3874L68.3749 48.3874C69.4375 47.3224 70.0342 45.8794 70.0342 44.3749C70.0342 42.8705 69.4375 41.4275 68.3749 40.3624C67.7333 39.7187 66.9435 39.2423 66.0749 38.9749C66.1348 38.9858 66.1934 39.0025 66.2499 39.0249V36.4249C67.7277 36.7638 69.0797 37.5134 70.1499 38.5874C71.6808 40.1245 72.5404 42.2055 72.5404 44.3749C72.5404 46.5443 71.6808 48.6254 70.1499 50.1624Z" fill="#F2C7C7"/>
<path d="M67.5 68.75H42.5C41.8096 68.75 41.25 69.3096 41.25 70V76.25C41.25 76.9404 41.8096 77.5 42.5 77.5H67.5C68.1904 77.5 68.75 76.9404 68.75 76.25V70C68.75 69.3096 68.1904 68.75 67.5 68.75Z" fill="#00AB67"/>
<path d="M8.12503 11.25C9.61636 11.2517 11.0461 11.8448 12.1007 12.8994C13.1552 13.9539 13.7484 15.3837 13.75 16.875V39.0212C14.7566 38.6686 15.842 38.6057 16.8826 38.8395C17.9232 39.0733 18.8773 39.5945 19.6363 40.3438L36.0363 56.6125C36.1544 56.7283 36.2484 56.8663 36.3127 57.0187C36.3771 57.171 36.4106 57.3346 36.4113 57.5V70C36.4113 70.3315 36.2796 70.6495 36.0452 70.8839C35.8107 71.1183 35.4928 71.25 35.1613 71.25H15C14.6685 71.25 14.3506 71.1183 14.1161 70.8839C13.8817 70.6495 13.75 70.3315 13.75 70V64.2675L4.33003 54.8488C3.74792 54.2696 3.28645 53.5807 2.97233 52.822C2.65821 52.0633 2.49768 51.2499 2.50003 50.4287V16.875C2.50168 15.3837 3.09484 13.9539 4.14938 12.8994C5.20391 11.8448 6.63369 11.2517 8.12503 11.25Z" fill="#FFE1E1"/>
<path d="M9.84993 50.1624L19.8499 60.1499C20.0841 60.3827 20.4009 60.5134 20.7312 60.5134C21.0614 60.5134 21.3782 60.3827 21.6124 60.1499C21.8452 59.9157 21.9759 59.5989 21.9759 59.2687C21.9759 58.9384 21.8452 58.6216 21.6124 58.3874L11.6249 48.3874C10.5624 47.3224 9.96567 45.8794 9.96567 44.3749C9.96567 42.8705 10.5624 41.4275 11.6249 40.3624C12.2665 39.7187 13.0563 39.2423 13.9249 38.9749C13.8651 38.9858 13.8065 39.0025 13.7499 39.0249V36.4249C12.2721 36.7638 10.9201 37.5134 9.84993 38.5874C8.31901 40.1245 7.45947 42.2055 7.45947 44.3749C7.45947 46.5443 8.31901 48.6254 9.84993 50.1624Z" fill="#F2C7C7"/>
<path d="M37.5 68.75H12.5C11.8096 68.75 11.25 69.3096 11.25 70V76.25C11.25 76.9404 11.8096 77.5 12.5 77.5H37.5C38.1904 77.5 38.75 76.9404 38.75 76.25V70C38.75 69.3096 38.1904 68.75 37.5 68.75Z" fill="#00AB67"/>
</svg>
