<svg width="84" height="84" viewBox="0 0 84 84" fill="none" xmlns="http://www.w3.org/2000/svg">
<path d="M9.74662 20.6533L9.58256 20.0394C4.69416 26.6964 1.80469 34.9125 1.80469 43.8046C1.80469 52.6968 4.69416 60.9129 9.58256 67.5698L9.74662 67.0124V20.6533Z" fill="#EEF3FB"/>
<path d="M82.1957 43.8047C82.1957 21.6054 64.1997 3.60938 42.0004 3.60938C41.2347 3.60938 40.4744 3.63267 39.7192 3.675C39.8274 4.07269 39.8861 4.49039 39.8861 4.92188V5.77172H44.7007C45.0626 5.77172 45.3569 6.06605 45.3569 6.42797V7.82316H54.7303C55.0922 7.82316 55.3866 8.11748 55.3866 8.47941V28.0042H71.0703C71.2809 28.0042 71.4524 28.1754 71.4524 28.3863V47.8944H73.5975C73.9594 47.8944 74.2537 48.1888 74.2537 48.5507V67.7946C79.2424 61.0985 82.1957 52.7966 82.1957 43.8047Z" fill="#EEF3FB"/>
<path d="M45.543 77.9297C45.1811 77.9297 44.8868 77.6354 44.8868 77.2735V71.2299H13.8205L12.7756 71.394C20.1037 79.1541 30.4849 84 42.0006 84C49.8013 84 57.0814 81.776 63.2452 77.9297H45.543Z" fill="#EEF3FB"/>
<path d="M54.7304 7.65912H45.357V13.9509C45.357 14.3128 45.0627 14.6072 44.7008 14.6072H20.433C20.071 14.6072 19.7767 14.3128 19.7767 13.9509V7.65912H10.4033C9.95034 7.65912 9.58301 8.02645 9.58301 8.47943V67.5697C10.5672 68.9101 11.6318 70.1874 12.7711 71.394H44.8865V48.5507C44.8865 48.1888 45.1808 47.8945 45.5427 47.8945H47.688V28.3863C47.688 28.1756 47.8593 28.0042 48.0699 28.0042H55.5505V8.47943C55.5507 8.02645 55.1835 7.65912 54.7304 7.65912Z" fill="#C7D4E9"/>
<path d="M13.8225 67.9747C13.3696 67.9747 13.0022 67.6074 13.0022 67.1544V11.8987C13.0022 11.4457 13.3696 11.0783 13.8225 11.0783H16.4067V8.47943C16.4067 8.02645 16.774 7.65912 17.227 7.65912H10.4033C9.95034 7.65912 9.58301 8.02645 9.58301 8.47943V67.5697C10.5672 68.9101 11.6318 70.1874 12.7711 71.394H16.4067V67.9747H13.8225Z" fill="#A1B5D3"/>
<path d="M51.3109 11.0783H45.3567V13.9507C45.3567 14.3126 45.0624 14.607 44.7005 14.607H20.4327C20.0707 14.607 19.7764 14.3126 19.7764 13.9507V11.0783H13.8223C13.3693 11.0783 13.002 11.4456 13.002 11.8986V67.1544C13.002 67.6074 13.3693 67.9747 13.8223 67.9747H44.8864V48.5507C44.8864 48.1888 45.1807 47.8944 45.5426 47.8944H47.6879V28.3862C47.6879 28.1756 47.8592 28.0041 48.0698 28.0041H52.1312V11.8986C52.1312 11.4456 51.7639 11.0783 51.3109 11.0783Z" fill="#FBFAFF"/>
<path d="M18.1287 67.1544V11.8986C18.1287 11.4456 18.4961 11.0783 18.9491 11.0783H13.8223C13.3693 11.0783 13.002 11.4456 13.002 11.8986V67.1544C13.002 67.6074 13.3693 67.9747 13.8223 67.9747H18.9491C18.4961 67.9747 18.1287 67.6075 18.1287 67.1544Z" fill="#F3F0FF"/>
<path d="M40.0503 5.77172V4.92188C40.0503 2.20352 37.8467 0 35.1284 0H30.0054C27.287 0 25.0835 2.20352 25.0835 4.92188V5.77172H40.0503Z" fill="#00AB67"/>
<path d="M35.1096 0H30.0051C27.2868 0 25.0833 2.20352 25.0833 4.92188V5.77172H30.1877V4.92188C30.1877 2.20352 32.3913 0 35.1096 0Z" fill="#00995C"/>
<path d="M44.7004 14.7712H20.4326C19.9796 14.7712 19.6123 14.4039 19.6123 13.9509V6.42801C19.6123 5.97503 19.9796 5.6077 20.4326 5.6077H44.7004C45.1534 5.6077 45.5207 5.97503 45.5207 6.42801V13.9509C45.5207 14.4039 45.1534 14.7712 44.7004 14.7712Z" fill="#00AB67"/>
<path d="M26.4276 13.9509V6.4278C26.4276 5.97482 26.795 5.60748 27.2479 5.60748H20.4326C19.9796 5.60748 19.6123 5.97482 19.6123 6.4278V13.9507C19.6123 14.4037 19.9796 14.771 20.4326 14.771H27.2479C26.795 14.7712 26.4276 14.4039 26.4276 13.9509Z" fill="#00995C"/>
<path d="M25.5176 27.0645H20.4379C20.0321 27.0645 19.7034 26.7357 19.7034 26.33V21.2503C19.7034 20.8445 20.0321 20.5157 20.4379 20.5157H25.5176C25.9233 20.5157 26.2521 20.8445 26.2521 21.2503V26.33C26.2521 26.7355 25.9231 27.0645 25.5176 27.0645Z" fill="#E9E7F1"/>
<path d="M23.5573 26.2901C23.231 26.2901 22.9181 26.1605 22.6871 25.9297L20.3033 23.5459C19.8227 23.0653 19.8227 22.2862 20.3033 21.8058C20.784 21.3253 21.5629 21.3253 22.0435 21.8058L23.5573 23.3196L26.0282 20.8485C26.5089 20.368 27.2879 20.368 27.7684 20.8485C28.249 21.329 28.249 22.108 27.7684 22.5885L24.4275 25.9297C24.1965 26.1605 23.8836 26.2901 23.5573 26.2901Z" fill="#00AB67"/>
<path d="M45.4299 25.0205H30.6587C29.979 25.0205 29.4282 24.4696 29.4282 23.7901C29.4282 23.1105 29.979 22.5596 30.6587 22.5596H45.4299C46.1096 22.5596 46.6604 23.1105 46.6604 23.7901C46.6604 24.4696 46.1096 25.0205 45.4299 25.0205Z" fill="#00AB67"/>
<path d="M25.5176 35.9907H20.4379C20.0321 35.9907 19.7034 35.6619 19.7034 35.2562V30.1765C19.7034 29.7708 20.0321 29.442 20.4379 29.442H25.5176C25.9233 29.442 26.2521 29.7708 26.2521 30.1765V35.2562C26.2521 35.6619 25.9231 35.9907 25.5176 35.9907Z" fill="#E9E7F1"/>
<path d="M23.5573 35.2167C23.2424 35.2167 22.9274 35.0966 22.6872 34.8562L20.3034 32.4724C19.8227 31.9918 19.8227 31.2129 20.3033 30.7323C20.784 30.2518 21.5631 30.2516 22.0433 30.7323L23.5573 32.2461L26.0282 29.7752C26.5089 29.2947 27.2879 29.2947 27.7684 29.7752C28.249 30.2557 28.249 31.0349 27.7684 31.5152L24.4275 34.8562C24.1871 35.0964 23.8721 35.2167 23.5573 35.2167Z" fill="#00AB67"/>
<path d="M45.4299 33.947H30.6587C29.979 33.947 29.4282 33.3961 29.4282 32.7166C29.4282 32.037 29.979 31.4861 30.6587 31.4861H45.4299C46.1096 31.4861 46.6604 32.037 46.6604 32.7166C46.6604 33.3961 46.1096 33.947 45.4299 33.947Z" fill="#00AB67"/>
<path d="M25.5176 44.9172H20.4379C20.0321 44.9172 19.7034 44.5884 19.7034 44.1827V39.103C19.7034 38.6973 20.0321 38.3685 20.4379 38.3685H25.5176C25.9233 38.3685 26.2521 38.6973 26.2521 39.103V44.1827C26.2521 44.5884 25.9231 44.9172 25.5176 44.9172Z" fill="#E9E7F1"/>
<path d="M23.5573 44.1431C23.2424 44.1431 22.9274 44.023 22.6872 43.7826L20.3034 41.3988C19.8227 40.9183 19.8227 40.1393 20.3033 39.6588C20.784 39.1782 21.5631 39.1781 22.0433 39.6588L23.5573 41.1726L26.0282 38.7015C26.5089 38.2209 27.2879 38.2209 27.7684 38.7015C28.249 39.182 28.249 39.9611 27.7684 40.4415L24.4275 43.7826C24.1871 44.023 23.8721 44.1431 23.5573 44.1431Z" fill="#00AB67"/>
<path d="M45.4299 42.8735H30.6587C29.979 42.8735 29.4282 42.3226 29.4282 41.643C29.4282 40.9635 29.979 40.4126 30.6587 40.4126H45.4299C46.1096 40.4126 46.6604 40.9635 46.6604 41.643C46.6604 42.3226 46.1096 42.8735 45.4299 42.8735Z" fill="#00AB67"/>
<path d="M25.5176 53.8439H20.4379C20.0321 53.8439 19.7034 53.5151 19.7034 53.1094V48.0297C19.7034 47.6239 20.0321 47.2952 20.4379 47.2952H25.5176C25.9233 47.2952 26.2521 47.6239 26.2521 48.0297V53.1094C26.2521 53.5151 25.9231 53.8439 25.5176 53.8439Z" fill="#E9E7F1"/>
<path d="M23.5573 53.0698C23.231 53.0698 22.9181 52.9402 22.6871 52.7093L20.3033 50.3255C19.8227 49.845 19.8227 49.0658 20.3033 48.5855C20.784 48.1049 21.5629 48.1049 22.0435 48.5855L23.5573 50.0993L26.0282 47.6282C26.5089 47.1476 27.2879 47.1476 27.7684 47.6282C28.249 48.1087 28.249 48.8878 27.7684 49.3682L24.4275 52.7093C24.1965 52.9402 23.8836 53.0698 23.5573 53.0698Z" fill="#00AB67"/>
<path d="M44.8864 49.3393H30.6587C29.979 49.3393 29.4282 49.8902 29.4282 50.5697C29.4282 51.2493 29.979 51.8002 30.6587 51.8002H44.8864V49.3393Z" fill="#00AB67"/>
<path d="M25.5176 62.7706H20.4379C20.0321 62.7706 19.7034 62.4419 19.7034 62.0361V56.9564C19.7034 56.5507 20.0321 56.2219 20.4379 56.2219H25.5176C25.9233 56.2219 26.2521 56.5507 26.2521 56.9564V62.0361C26.2521 62.4419 25.9231 62.7706 25.5176 62.7706Z" fill="#E9E7F1"/>
<path d="M23.5573 61.9965C23.2424 61.9965 22.9274 61.8765 22.6872 61.6361L20.3034 59.2523C19.8227 58.7717 19.8227 57.9928 20.3033 57.5122C20.784 57.0317 21.5631 57.0315 22.0433 57.5122L23.5573 59.026L26.0282 56.5549C26.5089 56.0744 27.2879 56.0744 27.7684 56.5549C28.249 57.0355 28.249 57.8144 27.7684 58.295L24.4275 61.6361C24.1871 61.8763 23.8721 61.9965 23.5573 61.9965Z" fill="#00AB67"/>
<path d="M44.8864 58.266H30.6587C29.979 58.266 29.4282 58.8169 29.4282 59.4965C29.4282 60.176 29.979 60.727 30.6587 60.727H44.8864V58.266Z" fill="#00AB67"/>
<path d="M38.1059 10.9413H27.0276C26.3479 10.9413 25.7971 10.3903 25.7971 9.71078C25.7971 9.03124 26.3479 8.48032 27.0276 8.48032H38.1059C38.7856 8.48032 39.3364 9.03124 39.3364 9.71078C39.3364 10.3903 38.7855 10.9413 38.1059 10.9413Z" fill="white"/>
<path d="M71.6161 47.8943V28.3861C71.6161 28.0844 71.3716 27.84 71.0699 27.84H48.0698C47.7681 27.84 47.5237 28.0844 47.5237 28.3861V47.8943H71.6161Z" fill="#FACAA2"/>
<path d="M53.2104 27.84H48.0698C47.7681 27.84 47.5237 28.0844 47.5237 28.3861V47.8943H52.6643V28.3861C52.6643 28.0846 52.9087 27.84 53.2104 27.84Z" fill="#EA9B58"/>
<path d="M73.5974 78.0938H45.5427C45.0897 78.0938 44.7224 77.7265 44.7224 77.2735V48.5508C44.7224 48.0978 45.0897 47.7304 45.5427 47.7304H73.5974C74.0504 47.7304 74.4177 48.0978 74.4177 48.5508V77.2735C74.4177 77.7265 74.0506 78.0938 73.5974 78.0938Z" fill="#FACAA2"/>
<path d="M49.7112 77.2735V48.5508C49.7112 48.0978 50.0786 47.7304 50.5315 47.7304H45.5427C45.0897 47.7304 44.7224 48.0978 44.7224 48.5508V77.2735C44.7224 77.7265 45.0897 78.0938 45.5427 78.0938H50.5315C50.0786 78.0938 49.7112 77.7265 49.7112 77.2735Z" fill="#EA9B58"/>
<path d="M59.407 74.172H48.532C48.2303 74.172 47.9858 73.9275 47.9858 73.6258V68.3548C47.9858 68.0531 48.2303 67.8087 48.532 67.8087H59.407V74.172Z" fill="#FFEEDD"/>
<path d="M51.4151 73.6258V68.3548C51.4151 68.0531 51.6595 67.8087 51.9612 67.8087H48.532C48.2305 67.8087 47.9858 68.0531 47.9858 68.3548V73.6258C47.9858 73.9274 48.2303 74.172 48.532 74.172H51.9612C51.6595 74.172 51.4151 73.9274 51.4151 73.6258Z" fill="#FFD5B3"/>
<path d="M62.6129 54.2566H56.5261C56.2244 54.2566 55.98 54.0122 55.98 53.7105V47.7302H63.159V53.7105C63.159 54.0122 62.9146 54.2566 62.6129 54.2566Z" fill="#00AB67"/>
<path d="M59.3906 53.7105V47.7302H55.9802V53.7105C55.9802 54.0122 56.2247 54.2566 56.5264 54.2566H59.9368C59.635 54.2566 59.3906 54.0122 59.3906 53.7105Z" fill="#00995C"/>
<path d="M52.6022 66.4452H49.2161C48.5364 66.4452 47.9856 65.8943 47.9856 65.2148C47.9856 64.5352 48.5364 63.9843 49.2161 63.9843H52.6022C53.2819 63.9843 53.8326 64.5352 53.8326 65.2148C53.8326 65.8943 53.2817 66.4452 52.6022 66.4452Z" fill="white"/>
<path d="M50.6956 65.2148C50.6956 64.5352 51.2463 63.9843 51.926 63.9843H49.2161C48.5364 63.9843 47.9856 64.5352 47.9856 65.2148C47.9856 65.8943 48.5364 66.4452 49.2161 66.4452H51.926C51.2463 66.4452 50.6956 65.8943 50.6956 65.2148Z" fill="#F3F0FF"/>
<path d="M62.6129 34.3666H56.5261C56.2244 34.3666 55.98 34.1221 55.98 33.8204V27.8402H63.159V33.8204C63.159 34.1221 62.9146 34.3666 62.6129 34.3666Z" fill="#00AB67"/>
<path d="M59.3906 33.8204V27.8402H55.9802V33.8204C55.9802 34.1221 56.2247 34.3666 56.5264 34.3666H59.9368C59.635 34.3664 59.3906 34.122 59.3906 33.8204Z" fill="#00995C"/>
<path d="M51.8161 45.9376C52.9623 45.9376 53.8915 45.0084 53.8915 43.8622C53.8915 42.716 52.9623 41.7868 51.8161 41.7868C50.6699 41.7868 49.7407 42.716 49.7407 43.8622C49.7407 45.0084 50.6699 45.9376 51.8161 45.9376Z" fill="white"/>
<path d="M51.4667 43.8622C51.4667 43.0243 51.9643 42.3042 52.6791 41.9764C52.4161 41.8558 52.1244 41.7868 51.8161 41.7868C50.67 41.7868 49.7407 42.716 49.7407 43.8622C49.7407 45.0083 50.67 45.9376 51.8161 45.9376C52.1244 45.9376 52.4159 45.8685 52.6791 45.7479C51.9643 45.4201 51.4667 44.7 51.4667 43.8622Z" fill="#F3F0FF"/>
</svg>
