<svg width="88" height="88" viewBox="0 0 88 88" fill="none" xmlns="http://www.w3.org/2000/svg">
<path d="M71.5999 2.66675H23.4132C20.3199 2.66675 17.8132 5.17341 17.8132 8.26675V72.7067C17.8132 75.8001 20.3199 78.3067 23.4132 78.3067H71.5999C74.6932 78.3067 77.1999 75.8001 77.1999 72.7067V8.26675C77.1999 5.17341 74.6932 2.66675 71.5999 2.66675Z" fill="#D4D9E2"/>
<path opacity="0.8" d="M71.6005 2.66675H23.4139C23.3339 2.66675 23.2539 2.69341 23.1739 2.69341C23.1739 2.77341 23.1472 2.85341 23.1472 2.93341V19.2001C23.1472 48.9067 47.2272 72.9868 76.9339 72.9868C77.0139 72.9868 77.0939 72.9601 77.1739 72.9601C77.1739 72.8801 77.2005 72.8001 77.2005 72.7201V8.26675C77.2005 5.17341 74.6939 2.66675 71.6005 2.66675Z" fill="#F0F3F7"/>
<path d="M23.4141 78.3201C20.3208 78.3201 17.8141 75.8134 17.8141 72.7201V9.68011H16.4008C13.3074 9.68011 10.8008 12.1868 10.8008 15.2801V79.7335C10.8008 82.8268 13.3074 85.3335 16.4008 85.3335H64.5874C67.6808 85.3335 70.1875 82.8268 70.1875 79.7335V78.3201H23.4141Z" fill="#4E597B"/>
<path d="M66.867 34.3467C66.1337 34.3467 65.5337 33.7467 65.5337 33.0134V23.2667H61.0003C60.267 23.2667 59.667 22.6667 59.667 21.9334C59.667 21.2 60.267 20.6 61.0003 20.6H66.867C67.6003 20.6 68.2003 21.2 68.2003 21.9334V33.0134C68.2003 33.7467 67.6003 34.3467 66.867 34.3467Z" fill="#4E597B"/>
<path d="M28.1466 34.3467C27.4132 34.3467 26.8132 33.7467 26.8132 33.0134V21.9334C26.8132 21.2 27.4132 20.6 28.1466 20.6H34.0132C34.7466 20.6 35.3466 21.2 35.3466 21.9334C35.3466 22.6667 34.7466 23.2667 34.0132 23.2667H29.4799V33.0134C29.4799 33.7467 28.8799 34.3467 28.1466 34.3467Z" fill="#4E597B"/>
<path d="M47.5067 42.187C46.7733 42.187 46.1733 41.587 46.1733 40.8537V35.3604C46.1733 34.627 46.7733 34.027 47.5067 34.027C48.24 34.027 48.84 34.627 48.84 35.3604V40.8537C48.84 41.6004 48.24 42.187 47.5067 42.187Z" fill="#4E597B"/>
<path d="M67.6398 59.6935H27.3731C26.6398 59.6935 26.0398 59.0935 26.0398 58.3601C26.0398 57.6268 26.6398 57.0268 27.3731 57.0268H67.6531C68.3865 57.0268 68.9865 57.6268 68.9865 58.3601C68.9865 59.0935 68.3865 59.6935 67.6398 59.6935Z" fill="#4E597B"/>
<path d="M67.6398 65.56H27.3731C26.6398 65.56 26.0398 64.96 26.0398 64.2267C26.0398 63.4934 26.6398 62.8934 27.3731 62.8934H67.6531C68.3865 62.8934 68.9865 63.4934 68.9865 64.2267C68.9865 64.96 68.3865 65.56 67.6398 65.56Z" fill="#4E597B"/>
<path d="M57.0798 71.4401H27.3731C26.6398 71.4401 26.0398 70.8401 26.0398 70.1068C26.0398 69.3734 26.6398 68.7734 27.3731 68.7734H57.0931C57.8265 68.7734 58.4265 69.3734 58.4265 70.1068C58.4265 70.8401 57.8131 71.4401 57.0798 71.4401Z" fill="#4E597B"/>
<path d="M60.0535 19.427L57.3469 19.0536C57.1335 18.2936 56.8269 17.5603 56.4535 16.8803L58.1069 14.707C58.4402 14.2803 58.3869 13.667 58.0135 13.2936L56.0802 11.3603C55.6935 10.9736 55.0935 10.9336 54.6669 11.267L52.4935 12.9203C51.8135 12.547 51.0802 12.2403 50.3202 12.027L49.9469 9.3203C49.8802 8.78696 49.4135 8.38696 48.8802 8.38696H46.1335C45.5869 8.38696 45.1335 8.78696 45.0669 9.3203L44.6935 12.027C43.9335 12.2403 43.2002 12.547 42.5202 12.9203L40.3469 11.267C39.9202 10.9336 39.3069 10.987 38.9335 11.3603L37.0002 13.2936C36.6135 13.6803 36.5735 14.2803 36.9069 14.707L38.5602 16.8803C38.1869 17.5603 37.8802 18.2936 37.6669 19.0536L34.9602 19.427C34.4269 19.4936 34.0269 19.9603 34.0269 20.4936V21.9203V23.227C34.0269 23.7736 34.4269 24.227 34.9602 24.2936L37.6669 24.667C37.8802 25.427 38.1869 26.1603 38.5602 26.8403L36.9069 29.0136C36.5735 29.4403 36.6269 30.0536 37.0002 30.427L38.9335 32.3603C39.3202 32.747 39.9202 32.787 40.3469 32.4536L42.5202 30.8003C43.2002 31.1736 43.9335 31.4803 44.6935 31.6936L45.0669 34.4003C45.1335 34.9336 45.6002 35.3336 46.1335 35.3336H48.8802C49.4269 35.3336 49.8802 34.9336 49.9469 34.4003L50.3202 31.6936C51.0802 31.4803 51.8135 31.1736 52.4935 30.8003L54.6669 32.4536C55.0935 32.787 55.7069 32.7336 56.0802 32.3603L58.0135 30.427C58.4002 30.0403 58.4402 29.4403 58.1069 29.0136L56.4535 26.8403C56.8269 26.1603 57.1335 25.427 57.3469 24.667L60.0535 24.2936C60.5869 24.227 60.9869 23.7603 60.9869 23.227V21.8536V20.4803C61.0002 19.9603 60.6002 19.507 60.0535 19.427ZM47.5069 27.267C44.5335 27.267 42.1069 24.8536 42.1069 21.867C42.1069 18.8803 44.5202 16.467 47.5069 16.467C50.4802 16.467 52.9069 18.8803 52.9069 21.867C52.9069 24.8536 50.4802 27.267 47.5069 27.267Z" fill="#00AB67"/>
<path d="M50.8134 40.8537H44.2C43.4667 40.8537 42.8667 41.4537 42.8667 42.187V48.8004C42.8667 49.5337 43.4667 50.1337 44.2 50.1337H50.8134C51.5467 50.1337 52.1467 49.5337 52.1467 48.8004V42.187C52.1467 41.4537 51.5467 40.8537 50.8134 40.8537Z" fill="#00AB67"/>
<path d="M70.174 33.0134H63.5606C62.8273 33.0134 62.2273 33.6134 62.2273 34.3468V40.9601C62.2273 41.6934 62.8273 42.2934 63.5606 42.2934H70.174C70.9073 42.2934 71.5073 41.6934 71.5073 40.9601V34.3468C71.5073 33.6001 70.9073 33.0134 70.174 33.0134Z" fill="#00AB67"/>
<path opacity="0.2" d="M66.2273 39.6268C65.494 39.6268 64.894 39.0268 64.894 38.2934V33.0134H63.5606C62.8273 33.0134 62.2273 33.6134 62.2273 34.3468V40.9601C62.2273 41.6934 62.8273 42.2934 63.5606 42.2934H70.174C70.9073 42.2934 71.5073 41.6934 71.5073 40.9601V39.6268H66.2273Z" fill="black"/>
<path d="M31.4533 33.0134H24.8399C24.1066 33.0134 23.5066 33.6134 23.5066 34.3468V40.9601C23.5066 41.6934 24.1066 42.2934 24.8399 42.2934H31.4533C32.1866 42.2934 32.7866 41.6934 32.7866 40.9601V34.3468C32.7866 33.6001 32.1999 33.0134 31.4533 33.0134Z" fill="#00AB67"/>
<path opacity="0.2" d="M17.8135 72.7201V9.68011H16.4002C15.9602 9.68011 15.5469 9.74678 15.1335 9.84011V72.7201C15.1335 77.2801 18.8402 80.9868 23.4002 80.9868H70.0269C70.1202 80.5868 70.1869 80.1601 70.1869 79.7201V78.3068H23.4135C20.3202 78.3201 17.8135 75.8134 17.8135 72.7201Z" fill="black"/>
<path opacity="0.2" d="M27.5066 39.6268C26.7733 39.6268 26.1733 39.0268 26.1733 38.2934V33.0134H24.8399C24.1066 33.0134 23.5066 33.6134 23.5066 34.3468V40.9601C23.5066 41.6934 24.1066 42.2934 24.8399 42.2934H31.4533C32.1866 42.2934 32.7866 41.6934 32.7866 40.9601V39.6268H27.5066Z" fill="black"/>
<path opacity="0.2" d="M46.8667 47.4803C46.1334 47.4803 45.5334 46.8803 45.5334 46.147V40.867H44.2C43.4667 40.867 42.8667 41.467 42.8667 42.2003V48.8137C42.8667 49.547 43.4667 50.147 44.2 50.147H50.8134C51.5467 50.147 52.1467 49.547 52.1467 48.8137V47.4803H46.8667Z" fill="black"/>
<path opacity="0.2" d="M57.0669 27.7334C55.1602 28.6 53.0535 29.0934 50.8402 29.0934C44.3602 29.0934 38.8535 25 36.7069 19.28L34.9602 19.52C34.4269 19.5867 34.0269 20.0534 34.0269 20.5867V22.0134V23.32C34.0269 23.8667 34.4269 24.32 34.9602 24.3867L37.6669 24.76C37.8802 25.52 38.1869 26.2534 38.5602 26.9334L36.9069 29.1067C36.5735 29.5334 36.6269 30.1467 37.0002 30.52L38.9335 32.4534C39.3202 32.84 39.9202 32.88 40.3469 32.5467L42.5202 30.8934C43.2002 31.2667 43.9335 31.5734 44.6935 31.7867L45.0669 34.4934C45.1335 35.0267 45.6002 35.4267 46.1335 35.4267H48.8802C49.4269 35.4267 49.8802 35.0267 49.9469 34.4934L50.3202 31.7867C51.0802 31.5734 51.8135 31.2667 52.4935 30.8934L54.6669 32.5467C55.0935 32.88 55.7069 32.8267 56.0802 32.4534L58.0135 30.52C58.4002 30.1334 58.4402 29.5334 58.1069 29.1067L57.0669 27.7334Z" fill="black"/>
</svg>
