<svg width="80" height="80" viewBox="0 0 80 80" fill="none" xmlns="http://www.w3.org/2000/svg">
<g clip-path="url(#clip0_548_813)">
<path d="M28.0952 62.7199L16.1601 69.2301C15.4597 69.612 14.8303 70.0814 14.2446 70.5931C21.2031 76.4603 30.1858 79.9999 40.0001 79.9999C49.742 79.9999 58.6673 76.5131 65.6061 70.726C64.9661 70.1856 64.2718 69.6996 63.502 69.3162L50.7216 62.9267C49.0703 62.1011 48.0273 60.4135 48.0273 58.5675V53.5531C48.3865 53.1441 48.7971 52.6188 49.2363 51.9984C50.9782 49.538 52.2959 46.8316 53.2092 43.9924C54.8484 43.4867 56.056 41.9728 56.056 40.1735V34.8211C56.056 33.6437 55.5322 32.5916 54.7186 31.855V24.1177C54.7186 24.1177 56.308 12.0769 40.0016 12.0769C23.6952 12.0769 25.2846 24.1177 25.2846 24.1177V31.855C24.4695 32.5916 23.9473 33.6437 23.9473 34.8211V40.1735C23.9473 41.5833 24.6884 42.8241 25.7978 43.5411C27.1352 49.3629 30.6371 53.5531 30.6371 53.5531V58.4437C30.6356 60.2248 29.6605 61.8656 28.0952 62.7199Z" fill="#A0A7B4"/>
<path d="M40.6837 0.00595647C18.5961 -0.371402 0.383319 17.2286 0.00596041 39.3161C-0.208379 51.8399 5.37351 63.0958 14.2611 70.581C14.8422 70.0739 15.4656 69.609 16.1584 69.2316L28.0935 62.7214C29.6588 61.8671 30.6339 60.2263 30.6339 58.4422V53.5516C30.6339 53.5516 27.1305 49.3614 25.7946 43.5395C24.6867 42.8226 23.9441 41.5833 23.9441 40.172V34.8195C23.9441 33.6422 24.4678 32.5901 25.2814 31.8535V24.1161C25.2814 24.1161 23.692 12.0754 39.9984 12.0754C56.3048 12.0754 54.7154 24.1161 54.7154 24.1161V31.8535C55.5305 32.5901 56.0528 33.6422 56.0528 34.8195V40.172C56.0528 41.9712 54.8452 43.4852 53.206 43.9909C52.2928 46.8301 50.975 49.5365 49.2331 51.9969C48.7939 52.6173 48.3833 53.1426 48.0241 53.5516V58.566C48.0241 60.412 49.0671 62.101 50.7184 62.9252L63.4988 69.3146C64.2656 69.698 64.9584 70.1826 65.5969 70.7214C74.2158 63.5335 79.7841 52.7863 79.9909 40.6837C80.3712 18.5961 62.7728 0.383315 40.6837 0.00595647Z" fill="#E6E9EF"/>
</g>
<defs>
<clipPath id="clip0_548_813">
<rect width="80" height="80" fill="white"/>
</clipPath>
</defs>
</svg>
